#define broken_x_mask_width 16
#define broken_x_mask_height 16
#define broken_x_mask_x_hot 7
#define broken_x_mask_y_hot 7
static unsigned char broken_x_mask_bits[] = {
   0x07, 0xe0, 0x0f, 0xf0, 0x1f, 0xf8, 0x3e, 0x7c, 0x7c, 0x3e, 0x78, 0x1e,
   0x70, 0x0e, 0x00, 0x00, 0x00, 0x00, 0x70, 0x0e, 0x78, 0x1e, 0x7c, 0x3e,
   0x3e, 0x7c, 0x1f, 0xf8, 0x0f, 0xf0, 0x07, 0xe0};
