#define broken_x_width 16
#define broken_x_height 16
#define broken_x_x_hot 7
#define broken_x_y_hot 7
static unsigned char broken_x_bits[] = {
   0x00, 0x00, 0x06, 0x60, 0x0e, 0x70, 0x1c, 0x38, 0x38, 0x1c, 0x30, 0x0c,
   0x00, 0x00, 0x00, 0x00, 0x00, 0x00, 0x00, 0x00, 0x30, 0x0c, 0x38, 0x1c,
   0x1c, 0x38, 0x0e, 0x70, 0x06, 0x60, 0x00, 0x00};
